SplineFontDB: 3.0
FontName: NyStormningFinKur
FullName: Ny Stormning Fin Kursiv
FamilyName: Ny Stormning
Weight: Fin
Copyright: Copyright (c) 2016, Mew Too/Cannot Into Space Fonts, Robert Jablonski/Cannot Into Space Fonts, All Rights Reserved.
Version: 0.90
ItalicAngle: 0
UnderlinePosition: -100
UnderlineWidth: 50
Ascent: 800
Descent: 200
InvalidEm: 0
sfntRevision: 0x0000e666
LayerCount: 2
Layer: 0 0 "Back" 1
Layer: 1 0 "Fore" 0
XUID: [1021 908 -2008021153 9976829]
StyleMap: 0x0000
FSType: 0
OS2Version: 4
OS2_WeightWidthSlopeOnly: 0
OS2_UseTypoMetrics: 1
CreationTime: 1422214609
ModificationTime: 1452319566
PfmFamily: 33
TTFWeight: 300
TTFWidth: 5
LineGap: 90
VLineGap: 0
Panose: 2 0 5 3 0 0 0 0 0 0
OS2TypoAscent: 800
OS2TypoAOffset: 0
OS2TypoDescent: -200
OS2TypoDOffset: 0
OS2TypoLinegap: 90
OS2WinAscent: 904
OS2WinAOffset: 0
OS2WinDescent: 1
OS2WinDOffset: 0
HheadAscent: 904
HheadAOffset: 0
HheadDescent: -1
HheadDOffset: 0
OS2SubXSize: 650
OS2SubYSize: 699
OS2SubXOff: 0
OS2SubYOff: 140
OS2SupXSize: 650
OS2SupYSize: 699
OS2SupXOff: 0
OS2SupYOff: 479
OS2StrikeYSize: 49
OS2StrikeYPos: 258
OS2CapHeight: 860
OS2XHeight: 860
OS2FamilyClass: 2048
OS2Vendor: 'CiSf'
OS2CodePages: 00000001.00000000
OS2UnicodeRanges: 00000007.00000000.00000000.00000000
Lookup: 258 0 0 "'kern' Horizontal Kerning in Latin lookup 0" { "'kern' Horizontal Kerning in Latin lookup 0-1" [100,10,2] } ['kern' ('DFLT' <'dflt' > 'latn' <'dflt' > ) ]
MarkAttachClasses: 1
DEI: 91125

StartChar: .notdef
Encoding: 65536 -1 0
Width: 445
Flags: W
HStem: 5 40<69 379> 488 40<123 433>
LayerCount: 2
Fore
SplineSet
123 488 m 1
 69 45 l 1
 379 45 l 1
 433 488 l 1
 123 488 l 1
414 5 m 1
 24 5 l 1
 88 528 l 1
 478 528 l 1
 414 5 l 1
EndSplineSet
EndChar

StartChar: comma
Encoding: 44 44 2
Width: 210
Flags: W
HStem: 319 166<104.318 194.894>
VStem: 70 160<354.318 449.682>
LayerCount: 2
Fore
SplineSet
139 319 m 0
 96 319 64 357 70 402 c 0
 76 447 117 485 160 485 c 0
 203 485 236 447 230 402 c 0
 224 357 182 319 139 319 c 0
EndSplineSet
EndChar

StartChar: period
Encoding: 46 46 3
Width: 212
Flags: W
HStem: 171 167<89.737 178.682> 430 167<121.106 210.151>
VStem: 53 193
LayerCount: 2
Fore
SplineSet
123 171 m 0
 80 171 47 209 53 254 c 0
 59 299 101 338 144 338 c 0
 187 338 219 299 213 254 c 0
 207 209 166 171 123 171 c 0
156 430 m 0
 113 430 80 469 86 514 c 0
 92 559 133 597 176 597 c 0
 219 597 252 559 246 514 c 0
 240 469 199 430 156 430 c 0
EndSplineSet
EndChar

StartChar: zero
Encoding: 48 48 4
Width: 832
Flags: W
HStem: 807 20G<346.5 685>
LayerCount: 2
Fore
SplineSet
543 485 m 1
 548 485 l 2
 644 491 748 531 757 601 c 0
 761 663 711 686 576 712 c 0
 571 713 l 1
 543 485 l 1
529 378 m 1
 484 10 l 1
 348 10 l 1
 393 378 l 1
 390 379 l 0
 233 397 90 522 97 606 c 1
 113 697 249 819 444 827 c 1
 588 827 l 1
 782 819 887 696 881 606 c 1
 868 521 694 397 534 379 c 0
 529 378 l 1
402 485 m 0
 407 485 l 1
 435 713 l 1
 428 712 l 0
 287 686 233 663 221 601 c 0
 212 531 308 491 402 485 c 0
EndSplineSet
EndChar

StartChar: one
Encoding: 49 49 5
Width: 426
Flags: W
HStem: 774 86<250 495>
LayerCount: 2
Fore
SplineSet
250 774 m 1
 156 10 l 1
 29 10 l 1
 134 860 l 1
 506 860 l 1
 495 774 l 1
 250 774 l 1
EndSplineSet
EndChar

StartChar: two
Encoding: 50 50 6
Width: 429
Flags: W
HStem: 629 87<243 478> 774 86<250 496>
LayerCount: 2
Fore
SplineSet
156 10 m 1
 29 10 l 1
 134 860 l 1
 507 860 l 1
 496 774 l 1
 250 774 l 1
 243 716 l 1
 489 716 l 1
 478 629 l 1
 232 629 l 1
 156 10 l 1
EndSplineSet
EndChar

StartChar: three
Encoding: 51 51 7
Width: 430
Flags: W
HStem: 481 87<225 459> 625 90<243 477> 774 86<250 495>
LayerCount: 2
Fore
SplineSet
156 5 m 1
 29 5 l 1
 134 860 l 1
 506 860 l 1
 495 774 l 1
 250 774 l 1
 243 715 l 1
 488 715 l 1
 477 625 l 1
 232 625 l 1
 225 568 l 1
 470 568 l 1
 459 481 l 1
 214 481 l 1
 156 5 l 1
EndSplineSet
EndChar

StartChar: four
Encoding: 52 52 8
Width: 432
Flags: W
HStem: 341 87<208 442> 481 87<225 459> 625 90<243 477> 774 86<250 495>
LayerCount: 2
Fore
SplineSet
156 5 m 1
 29 5 l 1
 134 860 l 1
 506 860 l 1
 495 774 l 1
 250 774 l 1
 243 715 l 1
 488 715 l 1
 477 625 l 1
 232 625 l 1
 225 568 l 1
 470 568 l 1
 459 481 l 1
 214 481 l 1
 208 428 l 1
 453 428 l 1
 442 341 l 1
 197 341 l 1
 156 5 l 1
EndSplineSet
EndChar

StartChar: five
Encoding: 53 53 9
Width: 513
Flags: W
HStem: 807 20G<128.503 367>
LayerCount: 2
Fore
SplineSet
223 485 m 1
 228 485 l 2
 324 491 429 531 438 601 c 0
 442 663 391 686 256 712 c 0
 251 713 l 1
 223 485 l 1
29 10 m 1
 131 827 l 1
 270 827 l 1
 464 819 568 696 562 606 c 1
 549 521 375 397 215 379 c 0
 210 378 l 1
 165 10 l 1
 29 10 l 1
EndSplineSet
EndChar

StartChar: six
Encoding: 54 54 10
Width: 513
Flags: W
HStem: 316 49<214 383> 375 110<223 304.33> 807 20G<128.518 367>
LayerCount: 2
Fore
SplineSet
29 5 m 1
 131 827 l 1
 270 827 l 1
 464 819 568 695 562 604 c 1
 548 518 374 393 214 375 c 1
 214 365 l 1
 389 365 l 1
 383 316 l 1
 203 316 l 1
 165 5 l 1
 29 5 l 1
223 485 m 1
 228 485 l 2
 324 491 429 531 438 601 c 0
 442 663 391 686 256 712 c 0
 251 713 l 1
 223 485 l 1
EndSplineSet
EndChar

StartChar: seven
Encoding: 55 55 11
Width: 512
Flags: W
HStem: 228 49<198 372> 316 49<214 383> 375 110<223 304.33> 807 20G<128.518 367>
LayerCount: 2
Fore
SplineSet
29 5 m 1
 131 827 l 1
 270 827 l 1
 464 819 568 695 562 604 c 1
 548 518 374 393 214 375 c 1
 214 365 l 1
 389 365 l 1
 383 316 l 1
 203 316 l 1
 198 277 l 1
 378 277 l 1
 372 228 l 1
 192 228 l 1
 165 5 l 1
 29 5 l 1
223 485 m 1
 228 485 l 2
 324 491 429 531 438 601 c 0
 442 663 391 686 256 712 c 0
 251 713 l 1
 223 485 l 1
EndSplineSet
EndChar

StartChar: eight
Encoding: 56 56 12
Width: 512
Flags: W
HStem: 140 49<187 361> 228 49<198 372> 316 49<214 383> 375 110<223 304.33> 807 20G<128.518 367>
LayerCount: 2
Fore
SplineSet
29 5 m 1
 131 827 l 1
 270 827 l 1
 464 819 568 695 562 604 c 1
 548 518 374 393 214 375 c 1
 214 365 l 1
 389 365 l 1
 383 316 l 1
 203 316 l 1
 198 277 l 1
 378 277 l 1
 372 228 l 1
 192 228 l 1
 187 189 l 1
 367 189 l 1
 361 140 l 1
 181 140 l 1
 165 5 l 1
 29 5 l 1
223 485 m 1
 228 485 l 2
 324 491 429 531 438 601 c 0
 442 663 391 686 256 712 c 0
 251 713 l 1
 223 485 l 1
EndSplineSet
EndChar

StartChar: nine
Encoding: 57 57 13
Width: 512
Flags: W
HStem: 52 49<176 350> 140 49<187 361> 228 49<198 372> 316 49<214 383> 375 110<223 304.33> 807 20G<128.518 367>
LayerCount: 2
Fore
SplineSet
29 5 m 1
 131 827 l 1
 270 827 l 1
 464 819 568 695 562 604 c 1
 548 518 374 393 214 375 c 1
 214 365 l 1
 389 365 l 1
 383 316 l 1
 203 316 l 1
 198 277 l 1
 378 277 l 1
 372 228 l 1
 192 228 l 1
 187 189 l 1
 367 189 l 1
 361 140 l 1
 181 140 l 1
 176 101 l 1
 356 101 l 1
 350 52 l 1
 170 52 l 1
 165 5 l 1
 29 5 l 1
223 485 m 1
 228 485 l 2
 324 491 429 531 438 601 c 0
 442 663 391 686 256 712 c 0
 251 713 l 1
 223 485 l 1
EndSplineSet
EndChar

StartChar: colon
Encoding: 58 58 14
Width: 745
Flags: W
LayerCount: 2
Fore
SplineSet
540 6 m 1
 463 7 l 1
 277 7 l 1
 198 6 l 1
 352 298 l 1
 45 180 l 1
 87 523 l 1
 365 405 l 1
 283 697 l 1
 361 696 l 1
 545 696 l 1
 625 697 l 1
 471 405 l 1
 777 523 l 1
 735 180 l 1
 458 298 l 1
 540 6 l 1
EndSplineSet
EndChar

StartChar: at
Encoding: 64 64 15
Width: 847
Flags: W
HStem: 840 20G<131.529 340.51>
LayerCount: 2
Fore
SplineSet
723 766 m 1
 630 10 l 1
 503 10 l 1
 596 766 l 1
 419 691 l 1
 414 721 l 1
 249 767 l 1
 238 675 l 1
 380 637 l 1
 342 550 l 1
 227 583 l 1
 156 10 l 1
 29 10 l 1
 134 860 l 1
 265 860 l 1
 450 811 l 1
 444 799 l 1
 681 903 l 1
 920 780 l 1
 883 691 l 1
 723 766 l 1
EndSplineSet
EndChar

StartChar: A
Encoding: 65 65 16
Width: 373
Flags: W
HStem: 835 20G<129.553 333.6>
LayerCount: 2
Fore
SplineSet
28 5 m 1
 132 855 l 1
 258 855 l 1
 447 805 l 1
 410 716 l 1
 242 761 l 1
 231 670 l 1
 379 632 l 1
 340 545 l 1
 220 577 l 1
 150 5 l 1
 28 5 l 1
EndSplineSet
EndChar

StartChar: B
Encoding: 66 66 17
Width: 537
Flags: W
HStem: 802 20G<125.552 278.391>
LayerCount: 2
Fore
SplineSet
163 110 m 1
 399 261 l 1
 199 406 l 1
 163 110 l 1
237 717 m 1
 201 421 l 1
 436 566 l 1
 237 717 l 1
541 261 m 1
 153 5 l 1
 28 5 l 1
 128 822 l 1
 253 822 l 1
 578 566 l 1
 336 414 l 1
 541 261 l 1
EndSplineSet
EndChar

StartChar: C
Encoding: 67 67 18
Width: 346
Flags: W
HStem: 808 20G<400.764 415.427>
LayerCount: 2
Fore
SplineSet
75 430 m 1
 418 828 l 1
 396 657 l 1
 208 430 l 1
 340 203 l 1
 320 32 l 1
 75 430 l 1
EndSplineSet
EndChar

StartChar: D
Encoding: 68 68 19
Width: 666
Flags: W
HStem: 835 20G<129.553 264.974 599.09 738>
LayerCount: 2
Fore
SplineSet
552 196 m 1
 610 664 l 1
 445 430 l 1
 552 196 l 1
214 664 m 1
 156 196 l 1
 320 430 l 1
 214 664 l 1
152 5 m 1
 28 5 l 1
 132 855 l 1
 256 855 l 1
 396 543 l 1
 613 855 l 1
 738 855 l 1
 634 5 l 1
 509 5 l 1
 368 317 l 1
 152 5 l 1
EndSplineSet
EndChar

StartChar: E
Encoding: 69 69 20
Width: 715
Flags: W
LayerCount: 2
Fore
SplineSet
561 10 m 1
 649 723 l 1
 426 588 l 1
 238 723 l 1
 150 10 l 1
 28 10 l 1
 138 903 l 1
 191 904 l 1
 440 696 l 1
 740 904 l 1
 793 903 l 1
 683 10 l 1
 561 10 l 1
EndSplineSet
EndChar

StartChar: F
Encoding: 70 70 21
Width: 525
Flags: W
HStem: 836 20G<129.553 254 443.123 599>
LayerCount: 2
Fore
SplineSet
150 5 m 1
 28 6 l 1
 132 856 l 1
 254 856 l 1
 226 628 l 1
 464 856 l 1
 599 856 l 1
 206 465 l 1
 195 372 l 1
 434 593 l 1
 569 593 l 1
 175 209 l 1
 150 5 l 1
EndSplineSet
EndChar

StartChar: G
Encoding: 71 71 22
Width: 625
Flags: W
HStem: 747 96<357.18 427.504> 835 20G<129.553 254 568.5 705>
VStem: 346 93<758.877 831.875>
LayerCount: 2
Fore
SplineSet
213 521 m 1x60
 220 523 l 2
 340 565 532 705 605 855 c 1
 705 855 l 1
 636 678 380 482 204 420 c 0
 200 418 l 1
 150 5 l 1
 28 5 l 1
 132 855 l 1
 254 855 l 1
 213 521 l 1x60
386 747 m 0xa0
 361 747 343 769 346 795 c 0
 349 821 373 843 398 843 c 0
 423 843 442 821 439 795 c 0
 436 769 411 747 386 747 c 0xa0
EndSplineSet
EndChar

StartChar: H
Encoding: 72 72 23
Width: 627
Flags: W
HStem: 835 20G<129.553 254 574.542 699>
LayerCount: 2
Fore
SplineSet
150 5 m 1
 28 5 l 1
 132 855 l 1
 254 855 l 1
 213 523 l 1
 526 440 l 1
 577 855 l 1
 699 855 l 1
 595 5 l 1
 473 5 l 1
 514 344 l 1
 201 427 l 1
 150 5 l 1
EndSplineSet
EndChar

StartChar: I
Encoding: 73 73 24
Width: 182
Flags: W
HStem: 835 20G<129.553 254>
VStem: 28 226
LayerCount: 2
Fore
SplineSet
150 5 m 1
 28 5 l 1
 132 855 l 1
 254 855 l 1
 150 5 l 1
EndSplineSet
EndChar

StartChar: J
Encoding: 74 74 25
Width: 578
Flags: W
HStem: 821 20G<347.528 363.544>
LayerCount: 2
Fore
SplineSet
593 316 m 1
 315 14 l 1
 336 185 l 1
 464 316 l 1
 368 446 l 1
 389 617 l 1
 593 316 l 1
313 409 m 1
 292 238 l 1
 88 540 l 1
 366 841 l 1
 345 670 l 1
 217 540 l 1
 313 409 l 1
EndSplineSet
EndChar

StartChar: K
Encoding: 75 75 26
Width: 486
Flags: W
HStem: 836 20G<129.553 254 409.892 563>
LayerCount: 2
Fore
SplineSet
150 5 m 1
 28 6 l 1
 132 856 l 1
 254 856 l 1
 227 634 l 1
 428 856 l 1
 563 856 l 1
 209 487 l 1
 150 5 l 1
EndSplineSet
EndChar

StartChar: L
Encoding: 76 76 27
Width: 368
Flags: W
LayerCount: 2
Fore
SplineSet
148 10 m 1
 28 10 l 1
 138 900 l 1
 433 742 l 1
 395 653 l 1
 236 728 l 1
 148 10 l 1
EndSplineSet
EndChar

StartChar: M
Encoding: 77 77 28
Width: 715
Flags: W
LayerCount: 2
Fore
SplineSet
211 517 m 1
 362 631 l 1
 236 718 l 1
 211 517 l 1
501 629 m 1
 623 517 l 1
 648 718 l 1
 501 629 l 1
683 10 m 1
 561 10 l 1
 613 430 l 1
 427 588 l 1
 202 429 l 1
 149 10 l 1
 28 10 l 1
 138 903 l 1
 191 904 l 1
 440 696 l 1
 740 904 l 1
 793 903 l 1
 683 10 l 1
EndSplineSet
EndChar

StartChar: N
Encoding: 78 78 29
Width: 549
Flags: W
HStem: 835 20G<309.547 434>
LayerCount: 2
Fore
SplineSet
557 360 m 1
 379 408 l 1
 330 5 l 1
 208 5 l 1
 261 440 l 1
 82 489 l 1
 117 579 l 1
 273 537 l 1
 312 855 l 1
 434 855 l 1
 391 505 l 1
 580 453 l 1
 557 360 l 1
EndSplineSet
EndChar

StartChar: O
Encoding: 79 79 30
Width: 375
Flags: W
HStem: 835 20G<129.553 254>
LayerCount: 2
Fore
SplineSet
150 5 m 1
 28 5 l 1
 132 855 l 1
 254 855 l 1
 218 564 l 1
 387 609 l 1
 400 520 l 1
 207 470 l 1
 197 390 l 1
 379 438 l 1
 392 349 l 1
 185 295 l 1
 150 5 l 1
EndSplineSet
EndChar

StartChar: P
Encoding: 80 80 31
Width: 377
Flags: W
LayerCount: 2
Fore
SplineSet
82 10 m 1
 28 11 l 1
 138 903 l 1
 192 904 l 1
 445 780 l 1
 408 691 l 1
 243 764 l 1
 167 150 l 1
 350 223 l 1
 365 134 l 1
 82 10 l 1
EndSplineSet
EndChar

StartChar: Q
Encoding: 81 81 32
Width: 433
Flags: W
HStem: 835 20G<380.586 505>
LayerCount: 2
Fore
SplineSet
75 430 m 1
 369 739 l 1
 383 855 l 1
 505 855 l 1
 401 5 l 1
 279 5 l 1
 293 121 l 1
 75 430 l 1
310 259 m 1
 352 601 l 1
 183 430 l 1
 310 259 l 1
EndSplineSet
EndChar

StartChar: R
Encoding: 82 82 33
Width: 600
Flags: W
HStem: 800 20G<125.546 278.259>
LayerCount: 2
Fore
SplineSet
399 414 m 1
 576 5 l 1
 450 5 l 1
 305 341 l 1
 319 453 l 1
 450 550 l 1
 237 717 l 1
 150 5 l 1
 28 5 l 1
 128 820 l 1
 253 820 l 1
 594 550 l 1
 399 414 l 1
EndSplineSet
EndChar

StartChar: S
Encoding: 83 83 34
Width: 538
Flags: W
HStem: 771 20G<121.556 250>
LayerCount: 2
Fore
SplineSet
59 259 m 1
 124 791 l 1
 250 791 l 1
 202 399 l 1
 209 402 l 0
 313 444 413 492 513 538 c 1
 571 537 l 1
 506 5 l 1
 379 5 l 1
 427 398 l 1
 420 395 l 0
 316 353 217 304 117 258 c 1
 59 259 l 1
EndSplineSet
EndChar

StartChar: T
Encoding: 84 84 35
Width: 558
Flags: W
LayerCount: 2
Fore
SplineSet
427 729 m 1
 338 10 l 1
 218 10 l 1
 307 729 l 1
 129 654 l 1
 113 744 l 1
 389 903 l 1
 623 744 l 1
 585 654 l 1
 427 729 l 1
EndSplineSet
EndChar

StartChar: U
Encoding: 85 85 36
Width: 616
Flags: W
HStem: 835 20G<129.553 263.906>
LayerCount: 2
Fore
SplineSet
132 855 m 1
 256 855 l 1
 592 5 l 1
 466 5 l 1
 224 612 l 1
 150 5 l 1
 28 5 l 1
 132 855 l 1
EndSplineSet
EndChar

StartChar: V
Encoding: 86 86 37
Width: 525
Flags: W
HStem: 786 69<305.319 361.58>
VStem: 301 64<788.969 850.924>
LayerCount: 2
Fore
SplineSet
150 5 m 1
 28 6 l 1
 132 856 l 1
 254 856 l 1
 226 628 l 1
 464 856 l 1
 599 856 l 1
 206 465 l 1
 195 372 l 1
 434 593 l 1
 569 593 l 1
 175 209 l 1
 150 5 l 1
330 786 m 0
 312 786 299 802 301 820 c 0
 303 838 320 855 338 855 c 0
 356 855 367 839 365 820 c 0
 363 801 348 786 330 786 c 0
EndSplineSet
EndChar

StartChar: W
Encoding: 87 87 38
Width: 521
Flags: W
HStem: 802 20G<128 277.375>
LayerCount: 2
Fore
SplineSet
236 712 m 1
 200 418 l 1
 436 566 l 1
 236 712 l 1
128 820 m 1
 253 822 l 1
 565 566 l 1
 186 305 l 1
 150 5 l 1
 28 5 l 1
 128 820 l 1
EndSplineSet
EndChar

StartChar: X
Encoding: 88 88 39
Width: 795
Flags: W
HStem: 796 69G<122.519 251 743.506 872>
LayerCount: 2
Fore
SplineSet
820 468 m 1
 694 468 l 1
 746 885 l 1
 872 885 l 1
 820 468 l 1
59 264 m 1
 125 796 l 1
 251 796 l 1
 203 404 l 1
 210 407 l 0
 314 449 414 497 514 543 c 1
 572 542 l 1
 506 10 l 1
 378 10 l 1
 426 403 l 1
 419 400 l 0
 315 358 217 309 117 263 c 1
 59 264 l 1
EndSplineSet
EndChar

StartChar: Y
Encoding: 89 89 40
Width: 616
Flags: W
HStem: 187 97<235.18 304.725> 835 20G<129.553 263.906>
VStem: 224 93<199.307 272.875>
LayerCount: 2
Fore
SplineSet
132 855 m 1
 256 855 l 1
 592 5 l 1
 466 5 l 1
 224 612 l 1
 150 5 l 1
 28 5 l 1
 132 855 l 1
264 187 m 0
 239 187 221 210 224 236 c 0
 227 262 251 284 276 284 c 0
 301 284 320 262 317 236 c 0
 314 210 289 187 264 187 c 0
EndSplineSet
EndChar

StartChar: Z
Encoding: 90 90 41
Width: 560
Flags: W
HStem: 865 20G<324.535 447>
LayerCount: 2
Fore
SplineSet
274 455 m 1
 327 885 l 1
 447 885 l 1
 394 455 l 1
 571 530 l 1
 587 440 l 1
 313 281 l 1
 77 440 l 1
 115 530 l 1
 274 455 l 1
EndSplineSet
EndChar

StartChar: a
Encoding: 97 97 42
Width: 373
Flags: W
HStem: 840 20G<130.529 334.2>
LayerCount: 2
Fore
SplineSet
28 10 m 1
 133 860 l 1
 259 860 l 1
 447 810 l 1
 411 721 l 1
 243 766 l 1
 232 675 l 1
 379 637 l 1
 341 550 l 1
 220 582 l 1
 150 10 l 1
 28 10 l 1
EndSplineSet
EndChar

StartChar: b
Encoding: 98 98 43
Width: 368
Flags: W
HStem: 840 20G<130.529 255>
LayerCount: 2
Fore
SplineSet
28 10 m 1
 133 860 l 1
 255 860 l 1
 223 599 l 1
 346 632 l 1
 363 545 l 1
 211 507 l 1
 200 416 l 1
 377 461 l 1
 389 373 l 1
 188 321 l 1
 150 10 l 1
 28 10 l 1
EndSplineSet
EndChar

StartChar: c
Encoding: 99 99 44
Width: 370
Flags: W
HStem: 865 20G<133.542 256>
LayerCount: 2
Fore
SplineSet
62 283 m 1
 136 885 l 1
 256 885 l 1
 203 455 l 1
 380 530 l 1
 396 441 l 1
 62 283 l 1
EndSplineSet
EndChar

StartChar: d
Encoding: 100 100 45
Width: 386
Flags: W
LayerCount: 2
Fore
SplineSet
380 352 m 1
 338 10 l 1
 218 10 l 1
 261 356 l 1
 260 357 l 0
 251 371 247 389 249 408 c 0
 251 427 259 445 272 459 c 0
 273 460 l 1
 306 728 l 1
 129 653 l 1
 113 742 l 1
 448 900 l 1
 394 464 l 1
 395 463 l 0
 405 448 412 429 409 408 c 0
 406 387 395 368 381 353 c 0
 380 352 l 1
EndSplineSet
EndChar

StartChar: e
Encoding: 101 101 46
Width: 715
Flags: W
LayerCount: 2
Fore
SplineSet
561 10 m 1
 649 723 l 1
 426 588 l 1
 238 723 l 1
 150 10 l 1
 28 10 l 1
 138 903 l 1
 191 904 l 1
 440 696 l 1
 740 904 l 1
 793 903 l 1
 683 10 l 1
 561 10 l 1
EndSplineSet
EndChar

StartChar: f
Encoding: 102 102 47
Width: 525
Flags: W
HStem: 841 20G<130.529 255 444.123 600>
LayerCount: 2
Fore
SplineSet
150 10 m 1
 28 11 l 1
 133 861 l 1
 255 861 l 1
 227 633 l 1
 465 861 l 1
 600 861 l 1
 207 470 l 1
 195 377 l 1
 434 598 l 1
 569 598 l 1
 175 214 l 1
 150 10 l 1
EndSplineSet
EndChar

StartChar: g
Encoding: 103 103 48
Width: 650
Flags: W
HStem: 840 20G<130 264.59 589.346 729>
LayerCount: 2
Fore
SplineSet
439 435 m 1
 624 10 l 1
 498 10 l 1
 363 322 l 1
 151 10 l 1
 25 10 l 1
 314 435 l 1
 130 860 l 1
 256 860 l 1
 390 548 l 1
 603 860 l 1
 729 860 l 1
 439 435 l 1
EndSplineSet
EndChar

StartChar: h
Encoding: 104 104 49
Width: 511
Flags: W
HStem: 373 114<84 238 374 527> 840 20G<295.534 420>
LayerCount: 2
Fore
SplineSet
252 487 m 1
 298 860 l 1
 420 860 l 1
 374 487 l 1
 541 487 l 1
 527 373 l 1
 360 373 l 1
 315 5 l 1
 193 5 l 1
 238 373 l 1
 70 373 l 1
 84 487 l 1
 252 487 l 1
EndSplineSet
EndChar

StartChar: i
Encoding: 105 105 50
Width: 182
Flags: W
HStem: 840 20G<130.529 255>
VStem: 28 227
LayerCount: 2
Fore
SplineSet
150 10 m 1
 28 10 l 1
 133 860 l 1
 255 860 l 1
 150 10 l 1
EndSplineSet
EndChar

StartChar: j
Encoding: 106 106 51
Width: 578
Flags: W
HStem: 826 20G<348.528 364.544>
LayerCount: 2
Fore
SplineSet
593 316 m 1
 315 14 l 1
 336 185 l 1
 464 316 l 1
 368 446 l 1
 389 617 l 1
 593 316 l 1
314 414 m 1
 293 243 l 1
 89 545 l 1
 367 846 l 1
 346 675 l 1
 218 545 l 1
 314 414 l 1
EndSplineSet
EndChar

StartChar: k
Encoding: 107 107 52
Width: 486
Flags: W
HStem: 841 20G<130.529 255 410.802 564>
LayerCount: 2
Fore
SplineSet
150 10 m 1
 28 11 l 1
 133 861 l 1
 255 861 l 1
 227 639 l 1
 429 861 l 1
 564 861 l 1
 209 492 l 1
 150 10 l 1
EndSplineSet
EndChar

StartChar: l
Encoding: 108 108 53
Width: 368
Flags: W
LayerCount: 2
Fore
SplineSet
148 10 m 1
 28 10 l 1
 138 900 l 1
 433 742 l 1
 395 653 l 1
 236 728 l 1
 148 10 l 1
EndSplineSet
EndChar

StartChar: m
Encoding: 109 109 54
Width: 715
Flags: W
LayerCount: 2
Fore
SplineSet
211 517 m 1
 362 631 l 1
 236 718 l 1
 211 517 l 1
501 629 m 1
 623 517 l 1
 648 718 l 1
 501 629 l 1
683 10 m 1
 561 10 l 1
 613 430 l 1
 427 588 l 1
 202 429 l 1
 149 10 l 1
 28 10 l 1
 138 903 l 1
 191 904 l 1
 440 696 l 1
 740 904 l 1
 793 903 l 1
 683 10 l 1
EndSplineSet
EndChar

StartChar: n
Encoding: 110 110 55
Width: 368
Flags: W
HStem: 840 20G<130.529 255>
LayerCount: 2
Fore
SplineSet
150 10 m 1
 28 10 l 1
 133 860 l 1
 255 860 l 1
 211 505 l 1
 399 454 l 1
 367 365 l 1
 199 410 l 1
 150 10 l 1
EndSplineSet
EndChar

StartChar: o
Encoding: 111 111 56
Width: 542
Flags: W
LayerCount: 2
Fore
SplineSet
442 444 m 1
 341 581 l 1
 206 444 l 1
 308 308 l 1
 442 444 l 1
77 444 m 1
 362 752 l 1
 571 444 l 1
 365 222 l 1
 513 5 l 1
 383 5 l 1
 287 137 l 1
 152 4 l 1
 27 5 l 1
 227 222 l 1
 77 444 l 1
EndSplineSet
EndChar

StartChar: p
Encoding: 112 112 57
Width: 377
Flags: W
LayerCount: 2
Fore
SplineSet
82 10 m 1
 28 11 l 1
 138 903 l 1
 192 904 l 1
 445 780 l 1
 408 691 l 1
 243 764 l 1
 167 150 l 1
 350 223 l 1
 365 134 l 1
 82 10 l 1
EndSplineSet
EndChar

StartChar: q
Encoding: 113 113 58
Width: 433
Flags: W
HStem: 840 20G<381.414 506>
LayerCount: 2
Fore
SplineSet
75 435 m 1
 369 744 l 1
 384 860 l 1
 506 860 l 1
 401 10 l 1
 279 10 l 1
 293 126 l 1
 75 435 l 1
310 259 m 1
 352 601 l 1
 183 430 l 1
 310 259 l 1
EndSplineSet
EndChar

StartChar: r
Encoding: 114 114 59
Width: 600
Flags: W
HStem: 805 20G<125.546 278.259>
LayerCount: 2
Fore
SplineSet
399 419 m 1
 576 10 l 1
 450 10 l 1
 305 346 l 1
 319 458 l 1
 450 555 l 1
 238 722 l 1
 150 10 l 1
 28 10 l 1
 128 825 l 1
 253 825 l 1
 594 555 l 1
 399 419 l 1
EndSplineSet
EndChar

StartChar: s
Encoding: 115 115 60
Width: 181
Flags: W
HStem: 865 20G<133.506 258>
VStem: 84 174
LayerCount: 2
Fore
SplineSet
206 468 m 1
 84 468 l 1
 136 885 l 1
 258 885 l 1
 206 468 l 1
EndSplineSet
EndChar

StartChar: t
Encoding: 116 116 61
Width: 370
Flags: W
LayerCount: 2
Fore
SplineSet
448 900 m 1
 338 10 l 1
 218 10 l 1
 306 728 l 1
 129 653 l 1
 113 742 l 1
 448 900 l 1
EndSplineSet
EndChar

StartChar: u
Encoding: 117 117 62
Width: 616
Flags: W
HStem: 840 20G<130.529 264.882>
LayerCount: 2
Fore
SplineSet
133 860 m 1
 257 860 l 1
 592 10 l 1
 466 10 l 1
 225 617 l 1
 150 10 l 1
 28 10 l 1
 133 860 l 1
EndSplineSet
EndChar

StartChar: v
Encoding: 118 118 63
Width: 525
Flags: W
HStem: 791 69<305.319 361.58>
VStem: 301 64<793.969 855.508>
LayerCount: 2
Fore
SplineSet
150 10 m 1
 28 11 l 1
 133 861 l 1
 255 861 l 1
 227 633 l 1
 465 861 l 1
 600 861 l 1
 207 470 l 1
 195 377 l 1
 434 598 l 1
 569 598 l 1
 175 214 l 1
 150 10 l 1
330 791 m 0
 312 791 299 807 301 825 c 0
 303 843 321 860 339 860 c 0
 357 860 367 844 365 825 c 0
 363 806 348 791 330 791 c 0
EndSplineSet
EndChar

StartChar: w
Encoding: 119 119 64
Width: 521
Flags: W
HStem: 807 20G<128 278.375>
LayerCount: 2
Fore
SplineSet
236 712 m 1
 200 418 l 1
 436 566 l 1
 236 712 l 1
128 825 m 1
 254 827 l 1
 566 571 l 1
 187 310 l 1
 150 10 l 1
 28 10 l 1
 128 825 l 1
EndSplineSet
EndChar

StartChar: x
Encoding: 120 120 65
Width: 766
Flags: W
HStem: 118 84<394 511 648 753> 622 84<110 221 360 469> 776 20G<240.556 371>
LayerCount: 2
Fore
SplineSet
232 706 m 1
 243 796 l 1
 371 796 l 1
 360 706 l 1
 480 706 l 1
 469 622 l 1
 349 622 l 1
 323 404 l 1
 330 407 l 0
 434 449 532 496 632 542 c 1
 689 541 l 1
 648 202 l 1
 764 202 l 1
 753 118 l 1
 637 118 l 1
 624 10 l 1
 498 10 l 1
 511 118 l 1
 383 118 l 1
 394 202 l 1
 522 202 l 1
 546 403 l 1
 539 400 l 0
 435 358 335 309 235 263 c 1
 177 264 l 1
 221 622 l 1
 99 622 l 1
 110 706 l 1
 232 706 l 1
EndSplineSet
EndChar

StartChar: y
Encoding: 121 121 66
Width: 616
Flags: W
HStem: 187 97<235.18 304.725> 840 20G<130.529 264.882>
VStem: 224 93<199.307 272.875>
LayerCount: 2
Fore
SplineSet
133 860 m 1
 257 860 l 1
 592 10 l 1
 466 10 l 1
 225 617 l 1
 150 10 l 1
 28 10 l 1
 133 860 l 1
264 187 m 0
 239 187 221 210 224 236 c 0
 227 262 251 284 276 284 c 0
 301 284 320 262 317 236 c 0
 314 210 289 187 264 187 c 0
EndSplineSet
EndChar

StartChar: z
Encoding: 122 122 67
Width: 560
Flags: W
HStem: 865 20G<324.535 447>
LayerCount: 2
Fore
SplineSet
274 455 m 1
 327 885 l 1
 447 885 l 1
 394 455 l 1
 571 530 l 1
 587 440 l 1
 313 281 l 1
 77 440 l 1
 115 530 l 1
 274 455 l 1
EndSplineSet
EndChar

StartChar: Adieresis
Encoding: 196 196 68
Width: 627
Flags: W
HStem: 17 96<299.18 369.504> 835 20G<569.53 699>
VStem: 288 93<28.8766 101.875>
LayerCount: 2
Fore
SplineSet
509 339 m 1
 501 337 l 2
 381 295 194 155 121 5 c 1
 23 5 l 1
 92 182 342 378 518 440 c 0
 521 442 l 1
 572 855 l 1
 699 855 l 1
 595 5 l 1
 468 5 l 1
 509 339 l 1
340 113 m 0
 365 113 384 91 381 65 c 0
 378 39 353 17 328 17 c 0
 303 17 285 39 288 65 c 0
 291 91 315 113 340 113 c 0
EndSplineSet
EndChar

StartChar: Aring
Encoding: 197 197 69
Width: 570
Flags: W
HStem: 835 20G<330.538 460>
LayerCount: 2
Fore
SplineSet
435 442 m 1
 585 349 l 1
 525 264 l 1
 397 344 l 1
 356 5 l 1
 229 5 l 1
 271 354 l 1
 105 264 l 1
 67 349 l 1
 239 442 l 1
 90 535 l 1
 149 620 l 1
 293 530 l 1
 333 855 l 1
 460 855 l 1
 421 540 l 1
 569 620 l 1
 608 535 l 1
 435 442 l 1
EndSplineSet
EndChar

StartChar: AE
Encoding: 198 198 70
Width: 563
Flags: W
LayerCount: 2
Fore
SplineSet
437 764 m 1
 344 10 l 1
 286 9 l 1
 38 133 l 1
 75 222 l 1
 235 149 l 1
 328 903 l 1
 386 904 l 1
 634 780 l 1
 597 691 l 1
 437 764 l 1
EndSplineSet
EndChar

StartChar: Eth
Encoding: 208 208 71
Width: 429
Flags: W
HStem: 402 55<241.396 290.372> 835 20G<129.553 254>
VStem: 240 52<403.517 455.909>
LayerCount: 2
Fore
SplineSet
254 855 m 1
 240 739 l 1
 458 430 l 1
 164 121 l 1
 150 5 l 1
 28 5 l 1
 132 855 l 1
 254 855 l 1
350 430 m 1
 223 601 l 1
 181 257 l 1
 350 430 l 1
262 402 m 0
 248 402 238 415 240 430 c 0
 242 444 255 457 269 457 c 0
 283 457 294 444 292 430 c 0
 290 415 276 402 262 402 c 0
EndSplineSet
EndChar

StartChar: Odieresis
Encoding: 214 214 72
Width: 885
Flags: W
HStem: 836 20G<479.557 610>
LayerCount: 2
Fore
SplineSet
431 462 m 0
 434 463 l 1
 482 856 l 1
 610 856 l 1
 562 463 l 1
 565 462 l 0
 747 351 851 146 861 5 c 1
 724 5 l 1
 736 105 641 251 550 307 c 0
 543 312 l 1
 506 5 l 1
 378 5 l 1
 415 312 l 1
 408 307 l 0
 302 251 171 103 160 6 c 1
 23 6 l 1
 68 149 221 351 431 462 c 0
EndSplineSet
EndChar

StartChar: Oslash
Encoding: 216 216 73
Width: 568
Flags: W
HStem: 835 20G<319.538 449>
LayerCount: 2
Fore
SplineSet
345 5 m 1
 218 5 l 1
 249 262 l 1
 87 219 l 1
 74 309 l 1
 261 358 l 1
 271 436 l 1
 95 390 l 1
 82 479 l 1
 282 530 l 1
 322 855 l 1
 449 855 l 1
 413 564 l 1
 590 609 l 1
 593 518 l 1
 402 469 l 1
 392 393 l 1
 562 438 l 1
 584 350 l 1
 380 297 l 1
 345 5 l 1
EndSplineSet
EndChar

StartChar: Thorn
Encoding: 222 222 74
Width: 429
Flags: W
HStem: 835 20G<129.553 254>
LayerCount: 2
Fore
SplineSet
254 855 m 1
 240 739 l 1
 458 430 l 1
 164 121 l 1
 150 5 l 1
 28 5 l 1
 132 855 l 1
 254 855 l 1
350 430 m 1
 223 601 l 1
 181 259 l 1
 350 430 l 1
EndSplineSet
EndChar

StartChar: adieresis
Encoding: 228 228 75
Width: 627
Flags: W
HStem: 17 96<299.18 369.504> 840 20G<570.53 700>
VStem: 288 93<28.8766 101.875>
LayerCount: 2
Fore
SplineSet
509 344 m 1
 502 342 l 2
 382 300 194 160 121 10 c 1
 23 10 l 1
 92 187 343 383 519 445 c 0
 522 447 l 1
 573 860 l 1
 700 860 l 1
 595 10 l 1
 468 10 l 1
 509 344 l 1
340 113 m 0
 365 113 384 91 381 65 c 0
 378 39 353 17 328 17 c 0
 303 17 285 39 288 65 c 0
 291 91 315 113 340 113 c 0
EndSplineSet
EndChar

StartChar: aring
Encoding: 229 229 76
Width: 570
Flags: W
HStem: 840 20G<331.538 461>
LayerCount: 2
Fore
SplineSet
436 447 m 1
 585 354 l 1
 526 269 l 1
 398 349 l 1
 356 10 l 1
 229 10 l 1
 272 359 l 1
 106 269 l 1
 67 354 l 1
 240 447 l 1
 90 540 l 1
 150 625 l 1
 294 535 l 1
 334 860 l 1
 461 860 l 1
 422 545 l 1
 570 625 l 1
 608 540 l 1
 436 447 l 1
EndSplineSet
EndChar

StartChar: ae
Encoding: 230 230 77
Width: 563
Flags: W
LayerCount: 2
Fore
SplineSet
437 764 m 1
 344 10 l 1
 286 9 l 1
 38 133 l 1
 75 222 l 1
 235 149 l 1
 328 903 l 1
 386 904 l 1
 634 780 l 1
 597 691 l 1
 437 764 l 1
EndSplineSet
EndChar

StartChar: eth
Encoding: 240 240 78
Width: 429
Flags: W
HStem: 402 55<241.396 290.372> 840 20G<130.529 255>
VStem: 240 52<403.517 455.909>
LayerCount: 2
Fore
SplineSet
255 860 m 1
 240 744 l 1
 458 435 l 1
 164 126 l 1
 150 10 l 1
 28 10 l 1
 133 860 l 1
 255 860 l 1
350 430 m 1
 223 601 l 1
 181 257 l 1
 350 430 l 1
262 402 m 0
 248 402 238 415 240 430 c 0
 242 444 255 457 269 457 c 0
 283 457 294 444 292 430 c 0
 290 415 276 402 262 402 c 0
EndSplineSet
EndChar

StartChar: odieresis
Encoding: 246 246 79
Width: 885
Flags: W
HStem: 841 20G<480.506 611>
LayerCount: 2
Fore
SplineSet
431 467 m 0
 434 468 l 1
 483 861 l 1
 611 861 l 1
 562 468 l 1
 565 467 l 0
 747 356 851 151 861 10 c 1
 724 10 l 1
 736 110 641 256 550 312 c 0
 544 317 l 1
 506 10 l 1
 378 10 l 1
 416 317 l 1
 408 312 l 0
 302 256 171 108 160 11 c 1
 23 11 l 1
 68 154 221 356 431 467 c 0
EndSplineSet
EndChar

StartChar: oslash
Encoding: 248 248 80
Width: 568
Flags: W
HStem: 840 20G<320.538 450>
LayerCount: 2
Fore
SplineSet
345 10 m 1
 218 10 l 1
 250 267 l 1
 88 224 l 1
 75 314 l 1
 262 363 l 1
 271 441 l 1
 96 395 l 1
 82 484 l 1
 283 535 l 1
 323 860 l 1
 450 860 l 1
 414 569 l 1
 590 614 l 1
 593 523 l 1
 402 474 l 1
 393 398 l 1
 562 443 l 1
 585 355 l 1
 381 302 l 1
 345 10 l 1
EndSplineSet
EndChar

StartChar: thorn
Encoding: 254 254 81
Width: 429
Flags: W
HStem: 840 20G<130.529 255>
LayerCount: 2
Fore
SplineSet
255 860 m 1
 240 744 l 1
 458 435 l 1
 164 126 l 1
 150 10 l 1
 28 10 l 1
 133 860 l 1
 255 860 l 1
350 430 m 1
 223 601 l 1
 181 259 l 1
 350 430 l 1
EndSplineSet
EndChar

StartChar: Eng
Encoding: 330 330 82
Width: 542
Flags: W
LayerCount: 2
Fore
SplineSet
204 430 m 1
 306 293 l 1
 440 430 l 1
 340 567 l 1
 204 430 l 1
569 430 m 1
 285 119 l 1
 75 430 l 1
 361 741 l 1
 569 430 l 1
EndSplineSet
EndChar

StartChar: eng
Encoding: 331 331 83
Width: 662
Flags: W
HStem: 840 20G<167.543 292 610.5 743>
LayerCount: 2
Fore
SplineSet
257 576 m 1
 259 575 l 2
 270 567 280 557 287 544 c 0
 288 541 l 1
 293 542 l 0
 412 595 577 724 644 860 c 1
 743 860 l 1
 680 700 464 524 294 446 c 0
 292 446 l 1
 290 443 l 0
 279 416 259 393 235 379 c 0
 232 378 l 1
 187 10 l 1
 65 10 l 1
 112 387 l 1
 110 389 l 0
 89 410 77 442 81 477 c 0
 85 512 104 544 131 565 c 0
 134 567 l 1
 170 860 l 1
 292 860 l 1
 257 576 l 1
EndSplineSet
EndChar

StartChar: OE
Encoding: 338 338 84
Width: 568
Flags: W
HStem: 835 20G<319.538 449>
LayerCount: 2
Fore
SplineSet
345 5 m 1
 218 5 l 1
 249 262 l 1
 87 219 l 1
 74 309 l 1
 261 358 l 1
 271 436 l 1
 95 390 l 1
 82 479 l 1
 282 530 l 1
 322 855 l 1
 449 855 l 1
 413 564 l 1
 590 609 l 1
 593 518 l 1
 402 469 l 1
 392 393 l 1
 562 438 l 1
 584 350 l 1
 380 297 l 1
 345 5 l 1
EndSplineSet
EndChar

StartChar: oe
Encoding: 339 339 85
Width: 568
Flags: W
HStem: 840 20G<320.538 450>
LayerCount: 2
Fore
SplineSet
345 10 m 1
 218 10 l 1
 250 267 l 1
 88 224 l 1
 75 314 l 1
 262 363 l 1
 271 441 l 1
 96 395 l 1
 82 484 l 1
 283 535 l 1
 323 860 l 1
 450 860 l 1
 414 569 l 1
 590 614 l 1
 593 523 l 1
 402 474 l 1
 393 398 l 1
 562 443 l 1
 585 355 l 1
 381 302 l 1
 345 10 l 1
EndSplineSet
EndChar

StartChar: germandbls
Encoding: 223 223 86
Width: 435
Flags: W
HStem: 865 20G<133.506 258 387.506 512>
LayerCount: 2
Fore
SplineSet
206 468 m 1
 84 468 l 1
 136 885 l 1
 258 885 l 1
 206 468 l 1
460 468 m 1
 338 468 l 1
 390 885 l 1
 512 885 l 1
 460 468 l 1
EndSplineSet
EndChar
